<svg width="24" height="24" xmlns="http://www.w3.org/2000/svg">
 <title/>
 <desc/>

 <g>
  <title>background</title>
  <rect fill="none" id="canvas_background" height="402" width="582" y="-1" x="-1"/>
 </g>
 <g>
  <title>Layer 1</title>
  <path id="editor-books-library-collection-glyph" fill="#ffffff" d="m1,2.00246l0,18.99508c0,0.55364 0.45097,1.00246 0.99078,1.00246l3.01844,0c0.54719,0 0.99078,-0.43946 0.99078,-1.00246l0,-18.99508c0,-0.55364 -0.45097,-1.00246 -0.99078,-1.00246l-3.01844,0c-0.54719,0 -0.99078,0.43946 -0.99078,1.00246zm6,0l0,18.99508c0,0.55364 0.45097,1.00246 0.99078,1.00246l3.01844,0c0.54719,0 0.99078,-0.43946 0.99078,-1.00246l0,-18.99508c0,-0.55364 -0.45097,-1.00246 -0.99078,-1.00246l-3.01844,0c-0.54719,0 -0.99078,0.43946 -0.99078,1.00246zm5.62704,0.97067l4.91629,18.34784c0.14329,0.53477 0.69506,0.85158 1.21647,0.71187l2.9156,-0.78123c0.52854,-0.14163 0.84327,-0.68092 0.69756,-1.22474l-4.91629,-18.34784c-0.14329,-0.53477 -0.69506,-0.85158 -1.21647,-0.71187l-2.9156,0.78123c-0.52854,0.14163 -0.84327,0.68092 -0.69756,1.22474z"/>
 </g>
</svg>